<svg width="232" height="232" viewBox="0 0 232 232" fill="none" xmlns="http://www.w3.org/2000/svg">
<circle cx="116" cy="116" r="112.5" stroke="black" stroke-width="7"/>
<mask id="path-2-inside-1_219_66" fill="white">
<path fill-rule="evenodd" clip-rule="evenodd" d="M196.522 199.5C175.66 219.623 147.276 232 116 232C84.7253 232 56.3411 219.623 35.4785 199.5C56.3411 179.377 84.7253 167 116 167C147.276 167 175.66 179.377 196.522 199.5Z"/>
</mask>
<path d="M196.522 199.5L201.382 204.538L206.605 199.5L201.382 194.462L196.522 199.5ZM35.4785 199.5L30.6189 194.462L25.3955 199.5L30.6189 204.538L35.4785 199.5ZM191.663 194.462C172.052 213.377 145.391 225 116 225V239C149.16 239 179.267 225.869 201.382 204.538L191.663 194.462ZM116 225C86.6099 225 59.9485 213.377 40.3382 194.462L30.6189 204.538C52.7336 225.869 82.8408 239 116 239V225ZM40.3382 204.538C59.9485 185.623 86.6099 174 116 174V160C82.8408 160 52.7336 173.131 30.6189 194.462L40.3382 204.538ZM116 174C145.391 174 172.052 185.623 191.663 204.538L201.382 194.462C179.267 173.131 149.16 160 116 160V174Z" fill="black" mask="url(#path-2-inside-1_219_66)"/>
<circle cx="116" cy="101" r="40.5" stroke="black" stroke-width="7"/>
</svg>
